<svg width="291" height="446" viewBox="0 0 291 446" fill="none" xmlns="http://www.w3.org/2000/svg">
<path d="M151.308 1.81567C92.2411 12.8824 46.5078 51.6824 28.9078 105.682C18.3744 137.549 17.4411 168.749 25.4411 220.349C28.6411 241.149 29.9744 262.216 28.7744 270.749C28.2411 274.216 26.5078 278.616 24.7744 280.616L21.7078 284.082L17.8411 281.282C11.9744 277.016 6.77442 276.882 2.64109 281.016C-1.09225 284.749 -0.825579 291.816 3.17442 295.549C6.10775 298.349 7.57442 298.616 14.6411 298.082C26.6411 297.282 34.7744 289.949 40.2411 275.016C42.9078 267.682 43.1744 263.549 43.9744 225.682C45.0411 180.482 45.7078 176.082 54.7744 158.216C64.3744 139.016 86.3744 118.349 110.241 106.082C139.708 90.8824 168.908 86.0824 201.841 91.0157C209.174 92.0824 215.174 92.8824 215.308 92.749C215.574 92.4824 217.308 89.0157 219.308 85.0157C229.041 65.6824 250.108 54.2157 279.441 52.0824C285.574 51.6824 290.641 50.749 290.641 50.0824C290.641 49.549 285.708 44.0824 279.574 37.949C262.508 21.149 244.108 11.0157 217.441 4.08234C200.908 -0.184326 167.974 -1.38434 151.308 1.81567Z" fill="black"/>
<path d="M157.974 96.6156C148.774 97.9489 132.641 102.749 122.374 107.282C103.041 115.682 87.1743 127.149 73.1743 142.882L65.1743 151.949L68.641 154.616L72.1077 157.282L80.241 148.482C90.3743 137.282 101.308 129.549 117.441 121.816C134.774 113.416 142.908 111.549 163.974 110.749C178.908 110.216 184.241 110.616 195.841 112.882C203.441 114.482 209.708 115.682 209.974 115.416C210.508 114.482 213.441 99.4156 213.041 99.1489C210.241 96.6156 170.508 94.8822 157.974 96.6156Z" fill="black"/>
<path d="M157.308 116.482C141.974 118.349 121.974 125.149 108.241 133.282C97.441 139.549 76.3743 161.149 70.9077 171.416C61.5743 189.016 56.241 212.082 57.9743 227.416C59.1743 237.949 63.3077 255.149 66.5077 263.282C69.041 269.816 69.041 270.616 67.1743 275.949C64.5077 283.549 59.3077 292.216 53.7077 298.482C51.1743 301.282 49.441 304.216 49.9743 304.882C51.7077 307.816 66.1077 310.749 78.641 310.882C90.7743 311.016 91.3077 310.882 92.9077 307.682C93.7077 305.816 97.1743 292.482 100.508 278.082C103.708 263.682 107.441 250.082 108.508 247.949C117.441 230.616 142.641 236.616 142.641 256.082C142.641 258.616 139.308 273.016 135.308 287.949C131.308 302.749 127.974 316.082 127.974 317.282C127.974 318.482 131.041 323.016 134.641 327.282C167.308 364.882 195.041 404.349 209.574 433.682C212.641 439.949 215.574 445.016 216.108 445.016C216.641 445.016 218.641 434.616 220.508 421.949C222.508 409.416 227.308 379.816 231.308 356.349C235.308 332.882 239.308 308.482 240.374 302.216L242.108 290.749L230.508 288.616C216.374 285.949 206.908 281.949 197.708 274.616C189.308 267.949 175.574 251.282 176.241 248.482C176.641 246.616 181.841 246.349 214.774 246.082L252.774 245.682L257.708 249.416C264.508 254.616 266.374 261.149 263.974 272.749C261.441 285.282 261.708 303.949 264.508 313.549C265.708 317.816 267.041 321.016 267.308 320.749C267.708 320.482 268.908 313.016 269.974 304.216C272.241 287.149 275.174 270.349 277.441 261.816C278.241 258.882 279.041 251.282 279.174 245.016C279.441 236.882 280.508 231.016 282.908 223.949C284.774 218.749 286.108 214.349 285.974 214.349C285.708 214.349 280.508 215.549 274.374 217.016C250.508 222.749 234.241 224.349 199.308 224.216C163.841 224.082 132.774 222.082 123.574 219.416C116.108 217.282 105.174 206.216 102.908 198.882C100.908 192.216 100.908 182.082 102.641 175.549C104.508 168.882 112.108 159.682 119.974 155.682C125.841 152.615 127.974 152.182 136.974 152.182C146.474 153.682 148.374 154.216 154.241 158.216C157.974 160.749 162.908 165.682 165.174 169.282L169.441 175.682H183.708C193.574 175.682 200.774 174.882 206.641 173.282C215.708 170.749 255.974 154.216 255.974 153.016C255.841 151.949 237.841 138.216 230.908 133.816C222.241 128.482 208.108 122.616 196.374 119.549C186.374 117.016 166.108 115.416 157.308 116.482Z" fill="black"/>
<path d="M263.308 158.216C258.908 159.549 250.775 162.616 245.308 165.016C209.308 180.483 200.908 182.883 182.508 182.083L170.908 181.683L170.108 189.416C169.175 198.749 166.641 203.949 159.708 211.149L154.375 216.749L176.908 217.683C214.641 219.416 248.241 216.883 276.375 210.349C282.108 209.016 287.175 207.683 287.575 207.283C288.641 206.083 285.308 189.549 281.575 178.349C278.641 169.549 272.508 155.549 271.575 155.816C271.441 155.816 267.708 157.016 263.308 158.216Z" fill="black"/>
<path d="M126.508 160.349C116.241 163.682 106.641 176.349 106.641 186.749C106.641 194.082 114.908 202.349 123.041 203.282C135.708 204.749 146.641 192.216 141.308 182.216C138.508 177.016 127.974 180.616 127.974 186.749C127.974 189.816 125.308 191.016 123.041 188.749C118.508 184.082 125.441 174.616 134.508 173.416C139.441 172.749 140.374 173.149 144.774 177.549C149.308 182.082 149.574 182.882 148.908 188.349C147.574 200.482 136.774 210.216 124.508 210.482L119.308 210.616L124.641 213.149C136.641 218.749 151.974 213.816 159.308 201.816C167.708 188.082 162.908 169.682 149.308 162.749C141.308 158.749 133.974 157.949 126.508 160.349Z" fill="black"/>
<path d="M188.108 255.816C192.908 262.616 205.441 272.882 213.708 277.016C219.841 279.949 225.708 281.549 234.908 282.749C241.974 283.682 248.108 284.749 248.508 285.149C249.041 285.549 247.308 298.482 244.774 313.816C242.241 329.149 239.041 348.349 237.841 356.616L235.441 371.416L241.041 388.616C243.974 397.949 247.308 408.616 248.374 412.349L250.108 419.016L251.174 407.682C253.441 382.082 257.708 359.816 263.974 341.816L266.641 333.949L262.774 326.082C257.041 314.749 255.441 305.549 256.508 288.349C256.908 280.216 257.708 270.616 258.108 266.749C258.908 260.216 258.774 259.549 254.774 255.682L250.641 251.549L218.108 251.949L185.574 252.349L188.108 255.816Z" fill="black"/>
</svg>
