<svg xmlns="http://www.w3.org/2000/svg" viewBox="0 0 291.49 118.59"><title>vans-logo</title><path d="M378.51,557H374.1l-.83-9.46h4.41Zm267,0h4.41l.84-9.46h-4.41Zm-274.83-9.46h-4.41l.84,9.46h4.41ZM652.49,557h4.41l.84-9.46h-4.41Zm-251.67,2.3a6,6,0,0,1-5.72,6.18h-.27a6.06,6.06,0,0,1-6-6.09q0-.08,0-.16v-.06a6,6,0,0,1,6-6.19,6.07,6.07,0,0,1,6.06,6.07q0,.09,0,.19v.06m-18.72,0c0,6.65,5.39,12,12.63,12s12.73-5.4,12.73-12.05v-.06c0-6.66-5.39-12-12.63-12s-12.73,5.4-12.73,12.05v.06m29.47,11.52h6.53v-8.28h11.13v-5.33H418.09v-3.94h12.33v-5.61H411.56v23.15Zm22.66,0h6.53v-8.28h11.15v-5.33H440.76v-3.94h12.33v-5.61H434.22v23.15Zm37.25,0H478V553.29h7.07v-5.61H464.4v5.61h7.09v17.54Zm17.9,0h6.53V562h8.42v8.8h6.53V547.68h-6.53v8.67h-8.42v-8.69h-6.53v23.17Zm25.88,0h19.13v-5.47H521.71v-3.68H533v-5.07H521.71v-3.51h12.49v-5.47H515.27v23.18Zm37.08.17H558l4.71-13.33L567.49,571h5.69l7.88-23.34h-6.77l-4.11,13.41-4.55-13.48H560l-4.55,13.48-4.11-13.41h-6.91Zm36.37-9.3,2.66-6.59L594,561.7h-5.28Zm-10.47,9.12h6.87l1.68-4.14h9.12l1.72,4.14h7l-10-23.34h-6.31Zm29.47,0h18V565.2h-11.4V547.66h-6.53v23.15Zm21.59,0h18V565.2h-11.4V547.66h-6.53v23.15Z" transform="translate(-366.25 -452.71)"/><path d="M619,489.35H606.29c-1.23-3.11-2.6-5.54-9.7-5.54-4.91,0-7,2-7,4,0,2.22,1.75,4.08,7.16,5.28l11.48,3.06a14.35,14.35,0,0,1,11.15,14.27,15.73,15.73,0,0,1-4.08,11.23c-2.48,2.59-6.24,6-18.71,6-17.15,0-22.78-10.84-22.78-17.38h13.33c1.31,4.78,4.6,6.6,11.09,6.6,4.5,0,8.37-1.61,8.37-5.05,0-3.28-2.81-4.51-6.42-5.5l-9.07-2.45c-4.37-1.33-8-2.4-10.61-4.58-6.76-5.72-6.27-16.06,1.08-21.43,4.07-3,8.24-4.53,14.85-4.53,7.77,0,12.21,2.22,15.71,4.63,3.1,2.1,6.78,7.28,6.78,11.37m-214-36.64c.11.46,26.52,74.37,26.52,74.37h15.76l24.28-61.53H622.33l1.14-12.86H459.93l-20.15,51-18.11-51H405m130.37,47.77L555,527.06h12.32V474.49H553.15v28.59l-17.82-28.59H521.72v52.57h13.61V500.48ZM624,524.33a2.81,2.81,0,1,0-2.81,2.81,2.81,2.81,0,0,0,2.81-2.81v0Zm-.32,0a1.81,1.81,0,1,1,0-.06s0,0,0,.06Zm-1.14-.58a1,1,0,0,0-1-1H620v3h.66v-1h.52l.63,1h.76l-.7-1.07a.93.93,0,0,0,.65-.93Zm-.67,0a.43.43,0,0,1-.43.44h-.74v-.87h.64a.44.44,0,0,1,.56.44Zm-161.59,3.28h15.12l2.81-8.22h20l2.9,8.22H516l-19.05-52.57h-16Zm22.17-17.74,5.86-17.48,5.78,17.48H482.43Z" transform="translate(-366.25 -452.71)" style="fill:#d51920"/></svg>